<svg xmlns="http://www.w3.org/2000/svg" viewBox="0 0 180 180" xml:space="preserve"><path fill="#ADEBF6" d="M154.623 90c0 35.69-28.934 64.623-64.623 64.623-35.688 0-64.622-28.934-64.622-64.623 0-35.689 28.934-64.623 64.622-64.623 35.689 0 64.623 28.934 64.623 64.623z"/><path fill="#FFF" d="M138.926 109.08a4.896 4.896 0 0 0-4.89-4.895 4.892 4.892 0 0 0 4.89-4.891 4.895 4.895 0 0 0 4.893 4.891 4.9 4.9 0 0 0-4.893 4.895zM129.384 98.152a3.71 3.71 0 0 0-3.705-3.709 3.705 3.705 0 0 0 3.705-3.705 3.707 3.707 0 0 0 3.707 3.705 3.713 3.713 0 0 0-3.707 3.709zM60.692 45.283a2.815 2.815 0 0 0-2.812-2.814 2.814 2.814 0 0 0 2.812-2.812 2.815 2.815 0 0 0 2.813 2.812 2.817 2.817 0 0 0-2.813 2.814zM67.599 49.066c-.746 0-1.353.605-1.353 1.354 0-.748-.605-1.354-1.353-1.354.747 0 1.353-.605 1.353-1.351a1.354 1.354 0 0 0 1.353 1.351zM123.138 47.381a2.045 2.045 0 0 0-2.045 2.043 2.043 2.043 0 0 0-2.042-2.043 2.043 2.043 0 0 0 2.042-2.043c0 1.127.916 2.043 2.045 2.043zM127.723 57.754a2.045 2.045 0 0 0-2.044 2.041 2.043 2.043 0 0 0-2.043-2.041 2.045 2.045 0 0 0 2.043-2.045c0 1.127.917 2.045 2.044 2.045zM127.461 103.932c-.983 0-1.782.799-1.782 1.781 0-.982-.797-1.781-1.78-1.781.983 0 1.78-.799 1.78-1.781 0 .982.799 1.781 1.782 1.781zM120.957 55.186a3.384 3.384 0 0 0-3.383 3.381 3.384 3.384 0 0 0-3.383-3.381 3.385 3.385 0 0 0 3.383-3.383 3.385 3.385 0 0 0 3.383 3.383zM48.423 81.246a1.872 1.872 0 0 0-1.872 1.869 1.87 1.87 0 0 0-1.87-1.869 1.87 1.87 0 0 0 1.87-1.869c0 1.031.839 1.869 1.872 1.869zM50.037 93.689a3.487 3.487 0 0 0-3.485 3.484 3.485 3.485 0 0 0-3.484-3.484 3.487 3.487 0 0 0 3.484-3.484 3.488 3.488 0 0 0 3.485 3.484zM46.552 85.498a5.234 5.234 0 0 0-5.233 5.227 5.23 5.23 0 0 0-5.229-5.227 5.232 5.232 0 0 0 5.229-5.23 5.238 5.238 0 0 0 5.233 5.23z"/><g><path fill-rule="evenodd" clip-rule="evenodd" fill="#FFDB76" d="m59.445 154.331.03-13.702 70.056.154-.03 13.702z"/><path fill-rule="evenodd" clip-rule="evenodd" fill="#FFDB76" d="m129.502 154.488.012-5.582-70.056-.406-.012 5.832z"/><path fill-rule="evenodd" clip-rule="evenodd" fill="#333" d="m119.787 154.468.032-13.702 2.045.005-.032 13.702zM112.704 154.439l.03-13.702 2.047.004-.03 13.702zM104.136 147.618l1.772-1.764 1.765 1.772-1.773 1.765zM99.906 147.546l1.772-1.765 1.765 1.772-1.772 1.765z"/><g><path fill-rule="evenodd" clip-rule="evenodd" fill="#FF916E" d="m51.133 123.285.016-13.702 70.056.084-.016 13.702z"/><path fill-rule="evenodd" clip-rule="evenodd" fill="#FF916E" d="m121.189 123.371.007-5.582-70.056-.332-.007 5.83z"/><path fill-rule="evenodd" clip-rule="evenodd" fill="#FFF" d="m111.469 123.354.015-13.7 2.046.001-.015 13.701zM104.39 123.34l.017-13.702 2.046.003-.017 13.702z"/><path fill-rule="evenodd" clip-rule="evenodd" fill="#333" d="m95.817 116.521 1.77-1.766 1.767 1.771-1.771 1.766zM91.587 116.455l1.771-1.766 1.766 1.771-1.77 1.766z"/></g><g><path fill-rule="evenodd" clip-rule="evenodd" fill="#333" d="M109.076 123.271v17.459H58.815c-4.645-.207-8.348-4.041-8.348-8.734a8.74 8.74 0 0 1 8.149-8.725h50.46z"/><path fill-rule="evenodd" clip-rule="evenodd" fill="#FFF" d="M109.076 124.535v14.932h-49.1c-4.316 0-7.814-3.346-7.814-7.471 0-3.99 3.267-7.246 7.38-7.461h49.534z"/><path fill-rule="evenodd" clip-rule="evenodd" fill="#B2B2B2" d="m93.935 139.467.035-10.012-1.291.008v10.004z"/><path fill-rule="evenodd" clip-rule="evenodd" fill="#FF916E" d="m86.192 129.498 6.519-.043.112 17.481-3.285-2.766-3.237 2.805z"/><path fill-rule="evenodd" clip-rule="evenodd" fill="#FF916E" d="m86.262 139.685 6.522-.041.02 3.065-6.522.041z" opacity=".5"/></g><g><path fill="#E9AA89" d="m113.459 83.803-3.042-25.924c0-10.064-9.142-18.223-20.418-18.223s-20.417 8.158-20.417 18.223L66.54 83.803a19.28 19.28 0 0 0-.521 4.449c0 11.822 10.736 21.406 23.981 21.406 13.245 0 23.982-9.584 23.982-21.406 0-1.525-.181-3.014-.523-4.449z"/><path fill="#B3B3B3" d="m113.459 83.803-3.042-25.924c0-10.064-9.142-18.223-20.418-18.223s-20.417 8.158-20.417 18.223L66.54 83.803a19.28 19.28 0 0 0-.521 4.449c0 11.822 10.736 21.406 23.981 21.406 13.245 0 23.982-9.584 23.982-21.406 0-1.525-.181-3.014-.523-4.449z"/><path fill="#333" d="M98.589 41.342c-2.628-1.039-5.521-1.686-8.59-1.686-3.216 0-6.258.662-8.963 1.846-2.599 1.135 8.963 5.402 8.963 5.402s11.637-4.359 8.59-5.562z"/><path fill="#FF916E" d="M89.999 63.119c-4.321 1.977-4.537 4.119-4.537 4.119l4.537 5.602 4.537-5.602c.001 0-.214-2.142-4.537-4.119z"/><path fill="#FF916E" d="M89.999 63.119c-4.321 1.977-4.537 4.119-4.537 4.119l4.725 3.727 4.35-3.727s-.215-2.142-4.538-4.119z"/><path fill="#FFDB76" d="M89.999 63.119c-4.321 1.977-4.537 4.119-4.537 4.119l4.537 2.656 4.537-2.656c.001 0-.214-2.142-4.537-4.119z"/><path fill="#FFF" d="M109.832 57.752c0 5.301-4.298 9.6-9.599 9.6-5.302 0-9.6-4.299-9.6-9.6 0-5.301 4.298-9.6 9.6-9.6 5.301 0 9.599 4.299 9.599 9.6zM89.367 57.752c0 5.301-4.299 9.6-9.6 9.6-5.301 0-9.599-4.299-9.599-9.6 0-5.301 4.298-9.6 9.599-9.6s9.6 4.299 9.6 9.6z"/><circle fill="#FFDB76" cx="79.767" cy="57.752" r="4.375"/><path fill="#333" d="M82.626 57.752a2.86 2.86 0 1 1-5.72-.001 2.86 2.86 0 0 1 5.72.001z"/><path fill="#FFF" d="M78.528 55.756a.756.756 0 1 1-1.512 0 .756.756 0 0 1 1.512 0z"/><g><path fill="#FFDB76" d="M104.608 57.752a4.375 4.375 0 1 1-8.752 0 4.375 4.375 0 0 1 8.752 0z"/><path fill="#333" d="M103.09 57.752a2.859 2.859 0 1 1-5.717 0 2.859 2.859 0 0 1 5.717 0z"/><path fill="#FFF" d="M98.992 55.756a.755.755 0 1 1-1.51.002.755.755 0 0 1 1.51-.002z"/></g><g><path fill="#B3B3B3" d="M112.484 95.709c.085-.205.163-.414.241-.621.041-.105.082-.209.119-.314.067-.19.13-.381.191-.572.042-.129.086-.258.124-.391.055-.18.104-.359.153-.541.04-.148.079-.295.114-.445.043-.17.082-.344.118-.518.037-.164.068-.33.101-.496.03-.162.061-.324.087-.486.03-.188.055-.373.079-.561.02-.148.041-.297.057-.445.023-.219.04-.439.056-.66.01-.121.021-.242.028-.365.018-.344.029-.691.029-1.041 0-.291-.011-.58-.025-.869a19.368 19.368 0 0 0-.497-3.58l-1.553-13.225c-4.695-2.211-10.423 3.824-6.298 12.232a215.879 215.879 0 0 0 5.965 11.311c-3.887 6.709-12.084 11.336-21.574 11.336-9.489 0-17.687-4.627-21.573-11.336a216.558 216.558 0 0 0 5.966-11.311c4.124-8.408-1.604-14.443-6.3-12.232L66.54 83.803a19.539 19.539 0 0 0-.496 3.58 16.74 16.74 0 0 0 .004 1.91c.007.123.019.244.027.365.017.221.033.441.056.66.017.148.038.297.057.445.025.188.051.373.08.561.026.162.057.324.087.486.032.166.064.332.1.496.037.174.076.348.119.518a23.968 23.968 0 0 0 .266.986c.04.133.083.262.125.391.062.191.123.383.19.572.037.105.079.209.12.314.078.207.156.416.241.621 3.394 8.145 12.179 13.949 22.483 13.949 10.306.001 19.091-5.804 22.485-13.948z"/></g><g><path fill="#FFF" d="M78.985 110.844h-.488c0 1.195.488 2.068.488 2.068s.488-.873.488-2.068h-.488zM81.307 112.621h-.488c0 1.195.488 2.066.488 2.066s.488-.871.488-2.066h-.488zM83.629 110.844h-.488c0 1.195.488 2.068.488 2.068s.489-.873.489-2.068h-.489z"/><g><path fill="#FFF" d="M96.371 110.844h-.489c0 1.195.489 2.068.489 2.068s.487-.873.487-2.068h-.487zM98.692 112.621h-.487c0 1.195.487 2.066.487 2.066s.489-.871.489-2.066h-.489zM101.015 110.844h-.488c0 1.195.488 2.068.488 2.068s.489-.873.489-2.068h-.489z"/></g><g><path fill="#FFDB76" d="M78.985 111.877a1.16 1.16 0 0 1-1.161-1.16v-4.098a1.16 1.16 0 1 1 2.321 0v4.098c0 .64-.519 1.16-1.16 1.16zM83.629 111.877a1.16 1.16 0 0 1-1.161-1.16v-4.098a1.16 1.16 0 1 1 2.322 0v4.098a1.16 1.16 0 0 1-1.161 1.16z"/><path fill="#FFDB76" d="M81.307 113.654c-.642 0-1.162-.52-1.162-1.162v-6.967a1.161 1.161 0 1 1 2.323 0v6.967a1.16 1.16 0 0 1-1.161 1.162z"/><g><path fill="#FFDB76" d="M96.371 111.877c-.642 0-1.162-.52-1.162-1.16v-4.098a1.16 1.16 0 1 1 2.323 0v4.098c0 .64-.52 1.16-1.161 1.16zM101.015 111.877a1.16 1.16 0 0 1-1.16-1.16v-4.098a1.16 1.16 0 1 1 2.321 0v4.098c0 .64-.519 1.16-1.161 1.16z"/><path fill="#FFDB76" d="M98.692 113.654a1.16 1.16 0 0 1-1.16-1.162v-6.967a1.163 1.163 0 0 1 2.323 0v6.967c0 .643-.521 1.162-1.163 1.162z"/></g></g></g><g><path fill="#333" d="M117.083 100.367s4.536-18.148 0-27.871c-4.538-9.723-15.988-2.377-10.371 9.074 5.616 11.451 10.371 18.797 10.371 18.797zM62.918 100.367s-4.537-18.148 0-27.871c4.537-9.723 15.987-2.377 10.37 9.074-5.616 11.451-10.37 18.797-10.37 18.797z"/></g><g><path fill="#333" d="M90.187 53.377s2.95-7.143 14.277-7.143c11.328 0 10.354-6.785 11.219-7.541 0 0 5.97 9.709-12.615 9.709-3.354 0-8.129.776-12.881 4.975z"/><path fill="#333" d="M90.265 53.377s-2.95-7.143-14.278-7.143c-11.327 0-10.354-6.785-11.218-7.541 0 0-5.97 9.709 12.614 9.709 3.354 0 8.129.776 12.882 4.975z"/></g></g></g></svg>